<svg viewBox="0 0 133 133" xmlns="http://www.w3.org/2000/svg">
  <path
    d="M22.2581 131.758C34.1322 131.758 43.7581 121.908 43.7581 109.758C43.7581 97.6079 34.1322 87.7582 22.2581 87.7582C10.384 87.7582 0.758114 97.6079 0.758114 109.758C0.758114 121.908 10.384 131.758 22.2581 131.758Z"
    fill="currentColor"/>
  <path
    d="M0.758114 65.7582C18.0635 65.7582 34.6601 72.7118 46.8968 85.0892C59.1336 97.4666 66.0081 114.254 66.0081 131.758H87.7581C87.7581 108.419 78.5921 86.036 62.2764 69.5328C45.9607 53.0296 23.8319 43.7582 0.758114 43.7582V65.7582Z"
    fill="currentColor"/>
  <path
    d="M0.758114 22.5915C15.0941 22.5915 29.2897 25.4152 42.5344 30.9014C55.7791 36.3875 67.8135 44.4286 77.9506 54.5657C88.0877 64.7028 96.1288 76.7372 101.615 89.9819C107.101 103.227 109.925 117.422 109.925 131.758H131.758C131.758 97.0148 117.956 63.6945 93.3891 39.1272C68.8218 14.5599 35.5015 0.758198 0.758114 0.758198V22.5915Z"
    fill="currentColor"/>
</svg>
