<svg width="122" height="66" viewBox="0 0 122 66" fill="none" xmlns="http://www.w3.org/2000/svg">
  <g clip-path="url(#clip0_1_4614)">
    <path fill-rule="evenodd" clip-rule="evenodd" d="M19.7747 0.190674H20.3999H120.1H121.613L121.609 1.70349L121.509 45.3035L121.508 45.9243L121.07 46.3644L102.47 65.0644L102.027 65.5094H101.4H1.6999H0.190552V64V20.4V19.7748L0.63263 19.3328L19.3326 0.632752L19.7747 0.190674ZM21.0251 3.20937L5.34378 18.8907H100.775L116.456 3.20937H21.0251ZM118.582 5.35225L102.909 21.0252V60.3423L118.492 44.6758L118.582 5.35225ZM3.20925 62.4907V21.9094H99.8906V62.4907H3.20925Z" fill="currentColor"/>
    <path d="M27.5 46.5C27.5 49.8 25.4 52.6 20.1 52.6C17.8 52.6 16 52.1001 14.3 51.4001V46.9001C16 47.8001 18.1 48.3 20 48.3C21.7 48.3 22.6 47.8 22.6 46.8C22.6 43.8 14.3 44.7 14.3 38.5C14.3 34.7 17.4 32.3 21.6 32.3C23.4 32.3 25 32.7001 26.7 33.7001V38.5C24.4 37.1 22.8 36.6 21.5 36.6C19.9 36.6 19.1 37.2 19.1 38.1C19.1 41 27.5 39.9 27.5 46.5Z" fill="currentColor"/>
    <path d="M60.6 32.8L54.3 52.2001H49.5L45.2 38.9001L41 52.2001H36.2L29.9 32.8H35.3L38.8 45.8L42.9 32.8H47.7L51.8 45.8L55.3 32.8H60.6Z" fill="currentColor"/>
    <path d="M90.7 39.4001V52.2001H86V40.2001C86 38.1001 84.5 36.9001 82.9 36.9001C81.2 36.9001 79.8 38.1001 79.8 40.2001V52.2001H75V40.2001C75 38.1001 73.5 36.9001 71.9 36.9001C70.2 36.9001 68.8 38.1001 68.8 40.2001V52.2001H64V32.8H68.5V34.2001C69.9 32.8001 71.4 32.3 73.2 32.3C75.2 32.3 77 33.2 78.2 34.8C79.8 33.1 81.8 32.3 84.1 32.3C87.9 32.4 90.7 35.3001 90.7 39.4001Z" fill="currentColor"/>
  </g>
  <defs>
    <clipPath id="clip0_1_4614">
      <rect width="122" height="66" fill="white"/>
    </clipPath>
  </defs>
</svg>
