<svg width="24" height="24" viewBox="0 0 24 24" fill="none" xmlns="http://www.w3.org/2000/svg">
  <style>
    .a {
      fill: #F5F5F5;
    }

    .b {
      fill: #6D4C41;
      stroke: #6D4C41;
    }

    @media (prefers-color-scheme: dark) {
      .a {
        fill: #6D4C41;
      }

      .b {
        fill: #F5F5F5;
        stroke: #F5F5F5;
      }
    }
  </style>
  <g clip-path="url(#clip0_2_20)">
    <rect x="0.5" y="0.5" width="23" height="23" rx="4.5" class="b"/>
    <mask id="mask0_2_20" style="mask-type:alpha" maskUnits="userSpaceOnUse" x="1" y="1" width="22"
          height="22">
      <rect x="1" y="1" width="22" height="22" rx="4" fill="black"/>
    </mask>
    <g mask="url(#mask0_2_20)">
      <path
        d="M0.703125 23V21.4961L2.24609 21.2031V10.5879L0.703125 10.2949V8.78125H2.24609H5.77148L9.94141 19.0645H10L14.043 8.78125H19.1699V10.2949L17.6172 10.5879V21.2031L19.1699 21.4961V23H13.6133V21.4961L15.2441 21.2031V17.8926L15.2637 11.6719L15.2148 11.6621L10.8105 22.6777H9.02344L4.49219 11.7207L4.44336 11.7305L4.57031 17.7266V21.2031L6.25977 21.4961V23H0.703125Z"
        class="a"/>
    </g>
  </g>
  <defs>
    <clipPath id="clip0_2_20">
      <rect width="24" height="24" fill="white"/>
    </clipPath>
  </defs>
</svg>
